Coordinates
version=1
nRows=21
nColumns=28
inDegrees=yes

Units are S.I. units (second, meters, Newtons, ...)
Angles are in degrees.

endheader
time	pelvis_tilt	pelvis_list	pelvis_rotation	pelvis_tx	pelvis_ty	pelvis_tz	hip_flexion_r	hip_adduction_r	hip_rotation_r	knee_angle_r	ankle_angle_r	subtalar_angle_r	mtp_angle_r	hip_flexion_l	hip_adduction_l	hip_rotation_l	knee_angle_l	socket_flexion	socket_adduction	socket_rotation	socket_tx	socket_ty	socket_tz	foot_flex	lumbar_extension	lumbar_bending	lumbar_rotation
      0.63333333	     -1.98943231	     -3.57195771	      8.40749155	     -0.03634533	      0.98534946	      0.29150799	     26.82910730	      2.91866351	     -8.08262491	     -6.51247588	     16.89757125	    -17.98180102	    -14.22558692	    -14.15812869	     -5.64655278	      0.98597877	    -21.93494582	      0.00000000	      0.00000000	      0.00000000	      0.00000000	      0.00498956	      0.00000000	      7.86841026	     -8.00352995	      3.99160522	     -6.21934142
      0.63750000	     -1.92277569	     -3.68860467	      8.49063901	     -0.02997065	      0.98448545	      0.29166746	     27.00281586	      3.08462627	     -7.80433065	     -7.36819401	     16.62821723	    -17.99232164	    -14.23793915	    -14.37880438	     -5.84521308	      1.06259144	    -22.29514591	      0.00000000	      0.00000000	      0.00000000	      0.00000000	      0.00535968	      0.00000000	      7.80906618	     -8.03250561	      4.22802947	     -6.25738574
      0.64166667	     -1.84651771	     -3.82234949	      8.50470405	     -0.02358193	      0.98357769	      0.29194902	     27.23493296	      3.29267231	     -7.56345182	     -8.35127908	     16.30651361	    -18.03668196	    -14.23400668	    -14.60987297	     -6.04867489	      1.05296067	    -22.68389080	      0.00000000	      0.00000000	      0.00000000	      0.00000000	      0.00568164	      0.00000000	      7.72476516	     -8.06936017	      4.49503762	     -6.30641383
      0.64583333	     -1.78544859	     -3.98326104	      8.42001244	     -0.01700613	      0.98256160	      0.29229255	     27.56460198	      3.54422626	     -7.40499889	     -9.52267788	     15.90047886	    -18.15016465	    -14.17490414	    -14.88230394	     -6.25270765	      0.83070921	    -23.01299702	      0.00000000	      0.00000000	      0.00000000	      0.00000000	      0.00587887	      0.00000000	      7.64373848	     -8.07575596	      4.77705058	     -6.36365250
      0.65000000	     -1.90929932	     -4.13386379	      8.15797854	     -0.01012581	      0.98124482	      0.29295501	     28.05852101	      3.83247292	     -7.13979234	    -10.59090985	     14.07808963	    -18.76473329	     -8.43335181	    -14.99890611	     -6.38946910	      0.41609022	    -23.35773121	      0.00000000	      0.00000000	      0.00000000	      0.00000000	      0.00615476	      0.00000000	      7.50961542	     -7.81801538	      4.99094455	     -6.10805906
      0.65416667	     -1.83025406	     -4.27800615	      8.22710278	     -0.00373484	      0.98052782	      0.29325362	     28.20223856	      4.04324881	     -6.85520619	    -11.46208192	     13.77846905	    -18.72423152	     -8.45301913	    -15.13396972	     -6.61582976	      0.49610593	    -23.88260957	      0.00000000	      0.00000000	      0.00000000	      0.00000000	      0.00660508	      0.00000000	      7.34279299	     -7.86725591	      5.24635920	     -6.12898108
      0.65833333	     -1.80507666	     -4.50627539	      8.01762306	      0.00304613	      0.97947663	      0.29383818	     28.59579477	      4.40436824	     -6.73346712	    -12.71451865	     13.27339520	    -18.81404388	     -8.32844634	    -15.36423306	     -6.86040391	      0.13181449	    -24.26805362	      0.00000000	      0.00000000	      0.00000000	      0.00000000	      0.00676181	      0.00000000	      7.18635889	     -7.78811749	      5.59561245	     -6.11254090
      0.66250000	     -1.72425591	     -4.66608164	      8.04390255	      0.00944022	      0.97883902	      0.29426091	     28.74808155	      4.64922073	     -6.47601146	    -13.60896952	     12.95479127	    -18.78844811	     -8.30667316	    -15.44568698	     -7.09364075	      0.15498188	    -24.89994814	      0.00000000	      0.00000000	      0.00000000	      0.00000000	      0.00723253	      0.00000000	      6.95793554	     -7.84297856	      5.86537762	     -6.10184337
      0.66666667	     -1.92343656	     -4.94536769	      7.64462640	      0.01641014	      0.97748369	      0.29517611	     29.35774893	      5.12869735	     -6.13540141	    -14.82296582	     12.04091394	    -19.21454601	     -6.96931268	    -15.43548210	     -7.31966511	     -0.39728674	    -25.36079694	      0.00000000	      0.00000000	      0.00000000	      0.00000000	      0.00738719	      0.00000000	      6.75302781	     -7.49213459	      6.18421683	     -5.61700780
      0.67083333	     -1.81419745	     -5.10555002	      7.68424461	      0.02283990	      0.97700703	      0.29561422	     29.44800400	      5.37068714	     -5.90829329	    -15.69385280	     11.74067377	    -19.18537020	     -6.94211459	    -15.48658772	     -7.56143622	     -0.35253060	    -26.08785142	      0.00000000	      0.00000000	      0.00000000	      0.00000000	      0.00793794	      0.00000000	      6.46259436	     -7.57841065	      6.44475134	     -5.65969928
      0.67500000	     -1.70853646	     -5.34807874	      7.50530425	      0.02963091	      0.97631469	      0.29625988	     29.70368301	      5.73454973	     -5.94240214	    -16.89359505	     11.21709722	    -19.28509166	     -6.82505789	    -15.66753309	     -7.83611659	     -0.65461579	    -26.68042751	      0.00000000	      0.00000000	      0.00000000	      0.00000000	      0.00831194	      0.00000000	      6.20060964	     -7.59219410	      6.82115017	     -5.72142914
      0.67916667	     -1.64112671	     -5.62353630	      7.39026369	      0.03639973	      0.97572787	      0.29686194	     29.88323006	      6.12528027	     -5.83427372	    -17.86804713	     10.78908966	    -19.33397222	     -6.62447556	    -15.71699025	     -8.16101306	     -0.87905191	    -27.39753553	      0.00000000	      0.00000000	      0.00000000	      0.00000000	      0.00878877	      0.00000000	      5.87641057	     -7.57192146	      7.20226504	     -5.66561885
      0.68333333	     -1.54041115	     -5.80668177	      7.39523391	      0.04294445	      0.97544450	      0.29741863	     29.90679029	      6.40881818	     -5.60643736	    -18.62913684	     10.56283400	    -19.29365684	     -6.57383451	    -15.67042274	     -8.42050655	     -0.85387908	    -28.27174415	      0.00000000	      0.00000000	      0.00000000	      0.00000000	      0.00956836	      0.00000000	      5.51314542	     -7.61966017	      7.46754505	     -5.63062864
      0.68750000	     -1.56682809	     -6.22798479	      7.10506951	      0.05005979	      0.97462997	      0.29813152	     30.15653746	      6.97604636	     -5.57719953	    -19.49592843	      8.68875322	    -20.17260684	     -1.66903018	    -15.67207852	     -8.83994903	     -1.31205821	    -28.98587084	      0.00000000	      0.00000000	      0.00000000	      0.00000000	      0.00984967	      0.00000000	      5.16688181	     -7.44330305	      8.00586066	     -5.33992739
      0.69166667	     -1.44567703	     -6.39965858	      7.10272520	      0.05665296	      0.97452592	      0.29873983	     30.12770010	      7.24959273	     -5.39678459	    -20.23465239	      8.52009315	    -20.12620716	     -1.67694361	    -15.57499921	     -9.09453373	     -1.29956404	    -29.96690456	      0.00000000	      0.00000000	      0.00000000	      0.00000000	      0.01083276	      0.00000000	      4.75768124	     -7.50297681	      8.24178548	     -5.32212664
      0.69583333	     -1.36852537	     -6.73152218	      6.88217211	      0.06350850	      0.97406362	      0.29947782	     30.30057384	      7.70342062	     -5.52045328	    -21.25447075	      8.16716561	    -20.17654592	     -1.71267023	    -15.55314319	     -9.45296806	     -1.61897582	    -30.85439590	      0.00000000	      0.00000000	      0.00000000	      0.00000000	      0.01138361	      0.00000000	      4.38231506	     -7.49912941	      8.69525818	     -5.25889009
      0.70000000	     -1.32647772	     -7.10034963	      6.73749516	      0.07039513	      0.97372849	      0.30011158	     30.36325114	      8.19249396	     -5.47357581	    -22.00009157	      7.89750556	    -20.19367534	     -1.70196990	    -15.41041398	     -9.87190753	     -1.85725572	    -31.83821258	      0.00000000	      0.00000000	      0.00000000	      0.00000000	      0.01207493	      0.00000000	      3.95500422	     -7.42051095	      9.16831513	     -5.09644700
      0.70416667	     -1.21087010	     -7.28316597	      6.66549946	      0.07697742	      0.97377872	      0.30087430	     30.28280205	      8.50547689	     -5.34999278	    -22.64982118	      7.76888278	    -20.15956479	     -1.69732689	    -15.21256113	    -10.12439094	     -1.87389487	    -32.97096902	      0.00000000	      0.00000000	      0.00000000	      0.00000000	      0.01325841	      0.00000000	      3.50003001	     -7.50068100	      9.40188122	     -5.05768258
      0.70833333	     -1.08714885	     -7.48030909	      6.59185125	      0.08366634	      0.97379446	      0.30155655	     30.19740107	      8.81929805	     -5.26793256	    -23.33663639	      7.63130351	    -20.13459070	     -1.69621249	    -15.01384597	    -10.39718828	     -1.95488599	    -34.12314081	      0.00000000	      0.00000000	      0.00000000	      0.00000000	      0.01442023	      0.00000000	      3.05342934	     -7.54803842	      9.66614947	     -5.01123261
      0.71250000	     -0.97425900	     -7.70008218	      6.46570616	      0.09032990	      0.97386751	      0.30232891	     30.11429747	      9.17113439	     -5.24860953	    -24.00666256	      7.49771411	    -20.11688504	     -1.69423089	    -14.77729316	    -10.68194655	     -2.07323294	    -35.31872955	      0.00000000	      0.00000000	      0.00000000	      0.00000000	      0.01566929	      0.00000000	      2.61087407	     -7.60559805	      9.94963812	     -4.95433588
      0.71666667	     -0.88651559	     -7.97110144	      6.29419575	      0.09702010	      0.97387755	      0.30315098	     30.05177731	      9.57758166	     -5.30245742	    -24.64710456	      7.36271768	    -20.10843469	     -1.68924327	    -14.50336409	    -11.01214966	     -2.25670911	    -36.55058633	      0.00000000	      0.00000000	      0.00000000	      0.00000000	      0.01686845	      0.00000000	      2.20401312	     -7.65039495	     10.27945210	     -4.86744139
